<svg xmlns="http://www.w3.org/2000/svg" xmlns:svg="http://www.w3.org/2000/svg" xmlns:xlink="http://www.w3.org/1999/xlink" id="svg7657" width="72" height="72" version="1.1"><defs id="defs7659"><linearGradient id="linearGradient9084"><stop style="stop-color:#fff;stop-opacity:.37133551" id="stop9086" offset="0"/><stop style="stop-color:#fff;stop-opacity:0" id="stop9088" offset="1"/></linearGradient><linearGradient id="linearGradient9078"><stop style="stop-color:#f4dab2;stop-opacity:0" id="stop9080" offset="0"/><stop style="stop-color:#000;stop-opacity:1" id="stop9082" offset="1"/></linearGradient><linearGradient id="linearGradient9067"><stop id="stop9069" offset="0" style="stop-color:#f4dab2;stop-opacity:1"/><stop id="stop9071" offset="1" style="stop-color:#e19f36;stop-opacity:1"/></linearGradient><linearGradient id="linearGradient8840"><stop style="stop-color:#f4dab2;stop-opacity:1" id="stop8842" offset="0"/><stop style="stop-color:#e6b05a;stop-opacity:1" id="stop8844" offset="1"/></linearGradient><linearGradient id="linearGradient9197"><stop style="stop-color:#ecc07c;stop-opacity:1" id="stop9199" offset="0"/><stop style="stop-color:#e6b05a;stop-opacity:1" id="stop9201" offset="1"/></linearGradient><linearGradient id="linearGradient9207"><stop style="stop-color:#fff;stop-opacity:.41735537" id="stop9209" offset="0"/><stop style="stop-color:#fff;stop-opacity:0" id="stop9211" offset="1"/></linearGradient><linearGradient id="linearGradient9217"><stop style="stop-color:#7297c9;stop-opacity:1" id="stop9219" offset="0"/><stop style="stop-color:#3465a4;stop-opacity:1" id="stop9221" offset="1"/></linearGradient><linearGradient id="linearGradient9241"><stop style="stop-color:#396096;stop-opacity:1" id="stop9243" offset="0"/><stop style="stop-color:#204a87;stop-opacity:1" id="stop9245" offset="1"/></linearGradient><linearGradient id="linearGradient9233"><stop style="stop-color:#fff;stop-opacity:.57438017" id="stop9235" offset="0"/><stop style="stop-color:#fff;stop-opacity:0" id="stop9237" offset="1"/></linearGradient><linearGradient id="linearGradient7518" x1="72.139" x2="102.134" y1="185.5" y2="185.5" gradientUnits="userSpaceOnUse" xlink:href="#linearGradient9189"/><linearGradient id="linearGradient9189"><stop style="stop-color:#000;stop-opacity:1" id="stop9191" offset="0"/><stop style="stop-color:#000;stop-opacity:.43801653" id="stop9193" offset="1"/></linearGradient><filter id="filter9185" width="1.478" height="2.835" x="-.239" y="-.917" color-interpolation-filters="sRGB"><feGaussianBlur id="feGaussianBlur9187" stdDeviation="7.263"/></filter><radialGradient id="radialGradient8713" cx="5.439" cy="4.156" r="1.379" fx="5.439" fy="4.156" gradientUnits="userSpaceOnUse" xlink:href="#linearGradient9217"/><radialGradient id="radialGradient8715" cx="5.439" cy="4.156" r="1.379" fx="5.439" fy="4.156" gradientUnits="userSpaceOnUse" xlink:href="#linearGradient9241"/><radialGradient id="radialGradient8717" cx="5.766" cy="4.828" r="1.261" fx="5.766" fy="4.828" gradientTransform="matrix(0.289053,0.7823554,-0.9380251,0.3465674,8.6280848,-1.356734)" gradientUnits="userSpaceOnUse" xlink:href="#linearGradient9233"/><linearGradient id="linearGradient8728" x1="85" x2="92.546" y1="25" y2="53.161" gradientTransform="matrix(0.37667146,0.06533274,-0.06533274,0.37667146,-55.460823,-13.026799)" gradientUnits="userSpaceOnUse" xlink:href="#linearGradient9207"/><linearGradient id="linearGradient8732" x1="90" x2="109" y1="25" y2="120" gradientTransform="matrix(0.37667146,0.06533274,-0.06533274,0.37667146,-55.460819,-13.026798)" gradientUnits="userSpaceOnUse" xlink:href="#linearGradient9197"/><linearGradient id="linearGradient8826" x1="72.139" x2="102.134" y1="185.5" y2="185.5" gradientUnits="userSpaceOnUse" xlink:href="#linearGradient9189"/><linearGradient id="linearGradient8828" x1="90" x2="109" y1="25" y2="120" gradientTransform="matrix(0.38229538,0,0,0.38229538,-0.66703144,91.546508)" gradientUnits="userSpaceOnUse" xlink:href="#linearGradient9197"/><linearGradient id="linearGradient8830" x1="85" x2="92.546" y1="25" y2="53.161" gradientTransform="matrix(0.38229538,0,0,0.38229538,-0.6670361,91.546508)" gradientUnits="userSpaceOnUse" xlink:href="#linearGradient9207"/><radialGradient id="radialGradient8832" cx="5.439" cy="4.156" r="1.379" fx="5.439" fy="4.156" gradientUnits="userSpaceOnUse" xlink:href="#linearGradient9217"/><radialGradient id="radialGradient8834" cx="5.439" cy="4.156" r="1.379" fx="5.439" fy="4.156" gradientUnits="userSpaceOnUse" xlink:href="#linearGradient9241"/><radialGradient id="radialGradient8836" cx="5.766" cy="4.828" r="1.261" fx="5.766" fy="4.828" gradientTransform="matrix(0.289053,0.7823554,-0.9380251,0.3465674,8.6280848,-1.356734)" gradientUnits="userSpaceOnUse" xlink:href="#linearGradient9233"/><linearGradient id="linearGradient8915" x1="85" x2="92.546" y1="25" y2="53.161" gradientTransform="matrix(0.6893089,0.09091304,-0.11955893,0.52415291,-7.3318245,-42.739104)" gradientUnits="userSpaceOnUse" xlink:href="#linearGradient9207"/><linearGradient id="linearGradient8918" x1="25" x2="25" y1="-7.5" y2="48.11" gradientTransform="matrix(1.2857137,0,0,1.2857137,-0.64285062,-13.071403)" gradientUnits="userSpaceOnUse" xlink:href="#linearGradient9067"/><radialGradient id="radialGradient8920" cx="5.439" cy="4.156" r="1.379" fx="5.439" fy="4.156" gradientUnits="userSpaceOnUse" xlink:href="#linearGradient9217"/><radialGradient id="radialGradient8922" cx="5.439" cy="4.156" r="1.379" fx="5.439" fy="4.156" gradientUnits="userSpaceOnUse" xlink:href="#linearGradient9241"/><radialGradient id="radialGradient8924" cx="5.766" cy="4.828" r="1.261" fx="5.766" fy="4.828" gradientTransform="matrix(0.289053,0.7823554,-0.9380251,0.3465674,8.6280848,-1.356734)" gradientUnits="userSpaceOnUse" xlink:href="#linearGradient9233"/><linearGradient id="linearGradient9007" x1="85" x2="92.546" y1="25" y2="53.161" gradientTransform="matrix(0.6893089,0.09091304,-0.11955893,0.52415291,26.66821,145.2609)" gradientUnits="userSpaceOnUse" xlink:href="#linearGradient9207"/><linearGradient id="linearGradient9010" x1="25" x2="25" y1="-7.5" y2="48.11" gradientTransform="matrix(1.2857137,0,0,1.2857137,33.35718,174.9286)" gradientUnits="userSpaceOnUse" xlink:href="#linearGradient8840"/><radialGradient id="radialGradient9012" cx="5.766" cy="4.828" r="1.261" fx="5.766" fy="4.828" gradientTransform="matrix(0.289053,0.7823554,-0.9380251,0.3465674,8.6280848,-1.356734)" gradientUnits="userSpaceOnUse" xlink:href="#linearGradient9233"/><radialGradient id="radialGradient9014" cx="5.439" cy="4.156" r="1.379" fx="5.439" fy="4.156" gradientUnits="userSpaceOnUse" xlink:href="#linearGradient9217"/><radialGradient id="radialGradient9016" cx="5.439" cy="4.156" r="1.379" fx="5.439" fy="4.156" gradientUnits="userSpaceOnUse" xlink:href="#linearGradient9241"/><filter id="filter9060"><feGaussianBlur id="feGaussianBlur9062" stdDeviation=".789"/></filter><linearGradient id="linearGradient9076" x1="32.562" x2="43.974" y1="16.286" y2="42.061" gradientTransform="matrix(1.2857137,0,0,1.2857137,-0.642851,-13.071403)" gradientUnits="userSpaceOnUse" xlink:href="#linearGradient9078"/><linearGradient id="linearGradient9090" x1="49.321" x2="49.321" y1="-20.589" y2="5.574" gradientUnits="userSpaceOnUse" xlink:href="#linearGradient9084"/></defs><metadata id="metadata7662"/><g id="layer1" transform="translate(0,24)"><rect style="fill:url(#linearGradient8918);fill-opacity:1;stroke:none" id="rect8838" width="72" height="72" x="0" y="-24" rx="10" ry="10"/><rect id="rect9074" width="72" height="72" x="0" y="-24" rx="10" ry="10" style="fill:url(#linearGradient9076);fill-opacity:1;stroke:none;opacity:.20433436999999999"/><rect id="rect9022" width="43" height="43" x="15.5" y="-8.5" style="opacity:.30340558;fill:#000;fill-opacity:1;stroke:none;filter:url(#filter9060)"/><path style="fill:#fce94f;fill-opacity:1;stroke:#663f00;stroke-width:.99999988;stroke-linecap:square;stroke-linejoin:miter;stroke-miterlimit:4;stroke-dashoffset:0;stroke-opacity:1" id="rect8848" d="m 14.411614,-9.5 c 14.333333,0 28.755053,0 43.088386,0 0,14.3333333 0,28.666667 0,43 -10.136286,0 -21.078963,0 -31.6875,0 -4.392588,0 -9.869895,-0.237976 -13.254442,-0.925476 0.758918,-3.162036 1.939356,-7.01592 1.939356,-13.144265 0.209929,-9.135076 -0.0858,-20.19094906 -0.0858,-28.930259 z"/><rect style="fill:#ead94d;fill-opacity:1;stroke:none" id="rect8850" width="23" height="4" x="29" y="4"/><rect id="rect8852" width="32" height="4" x="20" y="12" style="fill:#ead94d;fill-opacity:1;stroke:none"/><rect style="fill:#ead94d;fill-opacity:1;stroke:none" id="rect8854" width="32" height="4" x="20" y="20"/><rect id="rect8874" width="23" height="4" x="29.053" y="-4" style="fill:#ead94d;fill-opacity:1;stroke:none"/><rect style="fill:none;stroke:#663f00;stroke-width:.99999994;stroke-opacity:1" id="rect9018" width="71" height="71" x=".5" y="-23.5" rx="10" ry="10"/><path id="path8876" d="m 7.2624769,-23.969002 c -6.54544855,0 -7.27065299,3.155031 -7.262432506429,7.933486 L 0.09411678,-1.2631374 71.999978,-1.3986872 l 0,-14.6368288 c 0,-5.458303 -2.096338,-7.933486 -6.986118,-7.933486 l -57.7513831,0 z" style="fill:url(#linearGradient8915);fill-opacity:1;fill-rule:nonzero;stroke:none"/><path style="fill:#d3d7cf;fill-opacity:1;fill-rule:nonzero;stroke:#2e3436;stroke-width:1;stroke-linecap:square;stroke-linejoin:miter;stroke-miterlimit:4;stroke-opacity:1;stroke-dasharray:none;stroke-dashoffset:0" id="path8858" d="M 23.805472,-4.279919 26.354046,5.6737201 17.684211,0.27036979 23.805472,-4.279919 z"/><rect style="fill:#fce94f;fill-opacity:1;fill-rule:nonzero;stroke:none" id="rect8866" width="6.901" height="3.777" x="11.128" y="16.17" transform="matrix(0.87174712,-0.48995608,0.66458942,0.74720874,0,0)"/><path style="fill:url(#linearGradient9090);fill-opacity:1;stroke:none" id="rect9064" d="m 10.000006,-23.999971 51.99997,0 c 5.54,0 10,4.46 10,10 l 0,11.999969 c -12.124787,11.5510386 -60.433168,9.7195471 -71.999969726371,0 l 0,-11.999969 c 0,-5.54 4.460000026371,-10 9.999999726371,-10 z"/><path id="path8862" d="m 7.0277231,4.8277225 a 1.2613862,1.2613862 0 1 1 -2.5227723,0 1.2613862,1.2613862 0 1 1 2.5227723,0 z" transform="matrix(6.9959249,-0.00914353,0.00914536,6.9946001,-22.086753,-39.38025)" style="fill:url(#radialGradient8920);fill-opacity:1;fill-rule:nonzero;stroke:url(#radialGradient8922);stroke-width:.14295377;stroke-linecap:square;stroke-linejoin:miter;stroke-miterlimit:4;stroke-opacity:1;stroke-dasharray:none;stroke-dashoffset:0"/><path style="opacity:.27272728;fill:url(#radialGradient8924);fill-opacity:1;fill-rule:nonzero;stroke:none" id="path8864" d="m 7.0277231,4.8277225 a 1.2613862,1.2613862 0 1 1 -2.5227723,0 1.2613862,1.2613862 0 1 1 2.5227723,0 z" transform="matrix(3.8870735,-0.00508039,0.0050814,3.8863374,-5.8997774,-28.268957)"/></g></svg>