<svg xmlns="http://www.w3.org/2000/svg" xmlns:cc="http://web.resource.org/cc/" xmlns:svg="http://www.w3.org/2000/svg" xmlns:xlink="http://www.w3.org/1999/xlink" id="svg2160" width="16" height="16"><defs id="defs2162"><linearGradient id="linearGradient3212"><stop style="stop-color:#ef2929;stop-opacity:1" id="stop3214" offset="0"/><stop style="stop-color:#ef1313;stop-opacity:1" id="stop3216" offset="1"/></linearGradient><filter id="filter3200"><feGaussianBlur id="feGaussianBlur3202" stdDeviation=".641"/></filter><linearGradient id="linearGradient3218" x1="4.219" x2="12.703" y1="4.375" y2="12.86" gradientTransform="matrix(0.8274157,0,0,0.8274157,1.3725843,1.4211236)" gradientUnits="userSpaceOnUse" xlink:href="#linearGradient3212"/></defs><metadata id="metadata2165"/><g id="layer1"><path id="path3154" d="M 3.8125,1.96875 L 1.6875,4.09375 L 5.9375,8.3125 L 1.6875,12.5625 L 3.8125,14.6875 L 8.0625,10.4375 L 12.28125,14.6875 L 14.40625,12.5625 L 10.1875,8.3125 L 14.40625,4.09375 L 12.28125,1.96875 L 8.0625,6.1875 L 3.8125,1.96875 z" transform="matrix(0.8274157,0,0,0.8274157,1.3725843,1.4211236)" style="opacity:.63186813;fill:#2e3436;fill-opacity:1;fill-rule:nonzero;stroke:#2e3436;stroke-width:1;stroke-linecap:butt;stroke-linejoin:miter;stroke-miterlimit:4;stroke-dasharray:none;stroke-dashoffset:0;stroke-opacity:1;filter:url(#filter3200)"/><path style="opacity:1;fill:url(#linearGradient3218);fill-opacity:1;fill-rule:nonzero;stroke:#a40000;stroke-width:.8274157;stroke-linecap:butt;stroke-linejoin:miter;stroke-miterlimit:4;stroke-dasharray:none;stroke-dashoffset:0;stroke-opacity:1" id="rect2168" d="M 4.3719663,2.8949579 L 2.6137079,4.6532163 L 6.1302247,8.1438764 L 2.6137079,11.660393 L 4.3719663,13.418652 L 7.8884831,9.9021348 L 11.379143,13.418652 L 13.137402,11.660393 L 9.6467416,8.1438764 L 13.137402,4.6532163 L 11.379143,2.8949579 L 7.8884831,6.385618 L 4.3719663,2.8949579 z"/><rect style="opacity:.30769234;fill:#fff;fill-opacity:1;fill-rule:nonzero;stroke:none;stroke-width:1;stroke-linecap:butt;stroke-linejoin:miter;stroke-miterlimit:4;stroke-dasharray:none;stroke-dashoffset:0;stroke-opacity:1" id="rect3148" width="5.005" height=".827" x="-5.989" y="10.506" transform="matrix(0.7071068,-0.7071068,0.7071068,0.7071068,0,0)"/><rect style="opacity:.30769234;fill:#fff;fill-opacity:1;fill-rule:nonzero;stroke:none;stroke-width:1;stroke-linecap:butt;stroke-linejoin:miter;stroke-miterlimit:4;stroke-dasharray:none;stroke-dashoffset:0;stroke-opacity:1" id="rect3150" width="1.655" height=".827" x="-1.025" y="5.513" transform="matrix(0.7071068,-0.7071068,0.7071068,0.7071068,0,0)"/><rect id="rect3152" width="5.005" height=".827" x=".592" y="10.48" transform="matrix(0.7071068,-0.7071068,0.7071068,0.7071068,0,0)" style="opacity:.30769234;fill:#fff;fill-opacity:1;fill-rule:nonzero;stroke:none;stroke-width:1;stroke-linecap:butt;stroke-linejoin:miter;stroke-miterlimit:4;stroke-dasharray:none;stroke-dashoffset:0;stroke-opacity:1"/></g></svg>